<mxfile host="Electron" modified="2025-05-14T17:59:09.598Z" agent="Mozilla/5.0 (Windows NT 10.0; Win64; x64) AppleWebKit/537.36 (KHTML, like Gecko) draw.io/24.4.13 Chrome/124.0.6367.207 Electron/30.0.6 Safari/537.36" etag="6lI9n0mDOCJOTE48Yu41" version="24.4.13" type="device">
  <diagram name="Page-1" id="Yhg7C76lEOVaBMIcdR9y">
    <mxGraphModel dx="1114" dy="709" grid="1" gridSize="10" guides="1" tooltips="1" connect="1" arrows="1" fold="1" page="1" pageScale="1" pageWidth="827" pageHeight="1169" math="0" shadow="0">
      <root>
        <mxCell id="0" />
        <mxCell id="1" parent="0" />
        <mxCell id="3ggdFOlAp6wFt-ibNZRG-4" value="&amp;nbsp;" style="rounded=1;whiteSpace=wrap;html=1;" parent="1" vertex="1">
          <mxGeometry x="80" y="90" width="200" height="210" as="geometry" />
        </mxCell>
        <mxCell id="3ggdFOlAp6wFt-ibNZRG-7" value="" style="verticalLabelPosition=bottom;verticalAlign=top;html=1;shape=mxgraph.basic.corner_round_rect;dx=6;whiteSpace=wrap;" parent="1" vertex="1">
          <mxGeometry x="640" y="70" width="190" height="190" as="geometry" />
        </mxCell>
        <mxCell id="3ggdFOlAp6wFt-ibNZRG-21" value="" style="endArrow=none;html=1;rounded=0;entryX=0.988;entryY=0.095;entryDx=0;entryDy=0;entryPerimeter=0;exitX=0.013;exitY=0.142;exitDx=0;exitDy=0;exitPerimeter=0;" parent="1" edge="1" source="3ggdFOlAp6wFt-ibNZRG-4">
          <mxGeometry width="50" height="50" relative="1" as="geometry">
            <mxPoint x="120" y="120" as="sourcePoint" />
            <mxPoint x="279.99999999999994" y="120.00000000000004" as="targetPoint" />
          </mxGeometry>
        </mxCell>
        <mxCell id="3ggdFOlAp6wFt-ibNZRG-22" value="&lt;b&gt;STD&lt;/b&gt;" style="text;strokeColor=none;align=center;fillColor=none;html=1;verticalAlign=middle;whiteSpace=wrap;rounded=0;" parent="1" vertex="1">
          <mxGeometry x="151" y="92" width="60" height="30" as="geometry" />
        </mxCell>
        <mxCell id="3ggdFOlAp6wFt-ibNZRG-23" value="" style="endArrow=classic;html=1;rounded=0;elbow=vertical;" parent="1" edge="1">
          <mxGeometry width="50" height="50" relative="1" as="geometry">
            <mxPoint x="170" y="300" as="sourcePoint" />
            <mxPoint x="350" y="160" as="targetPoint" />
            <Array as="points">
              <mxPoint x="170" y="370" />
              <mxPoint x="250" y="370" />
              <mxPoint x="310" y="370" />
              <mxPoint x="310" y="160" />
            </Array>
          </mxGeometry>
        </mxCell>
        <mxCell id="3ggdFOlAp6wFt-ibNZRG-24" value="" style="endArrow=none;html=1;rounded=0;entryX=0.992;entryY=0.193;entryDx=0;entryDy=0;entryPerimeter=0;" parent="1" edge="1" target="3ggdFOlAp6wFt-ibNZRG-7">
          <mxGeometry width="50" height="50" relative="1" as="geometry">
            <mxPoint x="642" y="104.33" as="sourcePoint" />
            <mxPoint x="802" y="104.33000000000006" as="targetPoint" />
          </mxGeometry>
        </mxCell>
        <mxCell id="3ggdFOlAp6wFt-ibNZRG-25" value="&lt;b&gt;INS&lt;/b&gt;" style="text;strokeColor=none;align=center;fillColor=none;html=1;verticalAlign=middle;whiteSpace=wrap;rounded=0;" parent="1" vertex="1">
          <mxGeometry x="705" y="74" width="60" height="30" as="geometry" />
        </mxCell>
        <mxCell id="3ggdFOlAp6wFt-ibNZRG-26" value="" style="endArrow=classic;html=1;rounded=0;elbow=vertical;exitX=1.007;exitY=0.401;exitDx=0;exitDy=0;exitPerimeter=0;" parent="1" source="3ggdFOlAp6wFt-ibNZRG-27" edge="1">
          <mxGeometry width="50" height="50" relative="1" as="geometry">
            <mxPoint x="572.3100000000002" y="422.98" as="sourcePoint" />
            <mxPoint x="640" y="160" as="targetPoint" />
            <Array as="points">
              <mxPoint x="600" y="405" />
              <mxPoint x="600" y="160" />
            </Array>
          </mxGeometry>
        </mxCell>
        <mxCell id="3ggdFOlAp6wFt-ibNZRG-27" value="&amp;nbsp;" style="rounded=1;whiteSpace=wrap;html=1;arcSize=16;" parent="1" vertex="1">
          <mxGeometry x="345" y="300" width="210" height="260" as="geometry" />
        </mxCell>
        <mxCell id="3ggdFOlAp6wFt-ibNZRG-29" value="" style="endArrow=classic;html=1;rounded=0;elbow=vertical;exitX=0.5;exitY=1;exitDx=0;exitDy=0;entryX=0.417;entryY=0;entryDx=0;entryDy=0;entryPerimeter=0;" parent="1" edge="1">
          <mxGeometry width="50" height="50" relative="1" as="geometry">
            <mxPoint x="450" y="243" as="sourcePoint" />
            <mxPoint x="450.0200000000002" y="298" as="targetPoint" />
          </mxGeometry>
        </mxCell>
        <mxCell id="3ggdFOlAp6wFt-ibNZRG-32" value="" style="endArrow=none;html=1;rounded=0;entryX=0.999;entryY=0.121;entryDx=0;entryDy=0;entryPerimeter=0;" parent="1" edge="1">
          <mxGeometry width="50" height="50" relative="1" as="geometry">
            <mxPoint x="352" y="330" as="sourcePoint" />
            <mxPoint x="546.79" y="331.46000000000004" as="targetPoint" />
          </mxGeometry>
        </mxCell>
        <mxCell id="3ggdFOlAp6wFt-ibNZRG-33" value="&lt;b&gt;ENT&lt;/b&gt;" style="text;strokeColor=none;align=center;fillColor=none;html=1;verticalAlign=middle;whiteSpace=wrap;rounded=0;" parent="1" vertex="1">
          <mxGeometry x="422" y="303" width="60" height="30" as="geometry" />
        </mxCell>
        <mxCell id="3ggdFOlAp6wFt-ibNZRG-34" value="&amp;nbsp;" style="rounded=1;whiteSpace=wrap;html=1;" parent="1" vertex="1">
          <mxGeometry x="100" y="410" width="180" height="230" as="geometry" />
        </mxCell>
        <mxCell id="3ggdFOlAp6wFt-ibNZRG-36" value="&lt;b&gt;TRN&lt;/b&gt;" style="text;strokeColor=none;align=center;fillColor=none;html=1;verticalAlign=middle;whiteSpace=wrap;rounded=0;" parent="1" vertex="1">
          <mxGeometry x="159" y="410" width="60" height="30" as="geometry" />
        </mxCell>
        <mxCell id="3ggdFOlAp6wFt-ibNZRG-37" value="" style="endArrow=none;html=1;rounded=0;entryX=0.988;entryY=0.095;entryDx=0;entryDy=0;entryPerimeter=0;exitX=0.017;exitY=0.134;exitDx=0;exitDy=0;exitPerimeter=0;" parent="1" edge="1" source="3ggdFOlAp6wFt-ibNZRG-34">
          <mxGeometry width="50" height="50" relative="1" as="geometry">
            <mxPoint x="120" y="440" as="sourcePoint" />
            <mxPoint x="279.99999999999994" y="440.00000000000006" as="targetPoint" />
          </mxGeometry>
        </mxCell>
        <mxCell id="3ggdFOlAp6wFt-ibNZRG-38" value="" style="endArrow=none;html=1;rounded=0;elbow=vertical;entryX=-0.021;entryY=0.827;entryDx=0;entryDy=0;entryPerimeter=0;exitX=1.015;exitY=0.455;exitDx=0;exitDy=0;exitPerimeter=0;" parent="1" edge="1">
          <mxGeometry width="50" height="50" relative="1" as="geometry">
            <mxPoint x="282.70000000000005" y="519.6499999999999" as="sourcePoint" />
            <mxPoint x="340.59000000000015" y="520.02" as="targetPoint" />
          </mxGeometry>
        </mxCell>
        <mxCell id="3ggdFOlAp6wFt-ibNZRG-39" value="" style="endArrow=classic;html=1;rounded=0;elbow=vertical;exitX=0.5;exitY=1;exitDx=0;exitDy=0;" parent="1" edge="1">
          <mxGeometry width="50" height="50" relative="1" as="geometry">
            <mxPoint x="190" y="640" as="sourcePoint" />
            <mxPoint x="455" y="570" as="targetPoint" />
            <Array as="points">
              <mxPoint x="190" y="680" />
              <mxPoint x="455" y="680" />
            </Array>
          </mxGeometry>
        </mxCell>
        <mxCell id="3ggdFOlAp6wFt-ibNZRG-40" value="" style="rounded=1;whiteSpace=wrap;html=1;" parent="1" vertex="1">
          <mxGeometry x="620" y="370" width="200" height="160" as="geometry" />
        </mxCell>
        <mxCell id="3ggdFOlAp6wFt-ibNZRG-41" value="&lt;b&gt;GRD&lt;/b&gt;" style="text;strokeColor=none;align=center;fillColor=none;html=1;verticalAlign=middle;whiteSpace=wrap;rounded=0;" parent="1" vertex="1">
          <mxGeometry x="689" y="373" width="60" height="30" as="geometry" />
        </mxCell>
        <mxCell id="3ggdFOlAp6wFt-ibNZRG-44" value="" style="endArrow=none;html=1;rounded=0;elbow=vertical;entryX=-0.021;entryY=0.827;entryDx=0;entryDy=0;entryPerimeter=0;exitX=1;exitY=0.5;exitDx=0;exitDy=0;" parent="1" edge="1" source="3ggdFOlAp6wFt-ibNZRG-27">
          <mxGeometry width="50" height="50" relative="1" as="geometry">
            <mxPoint x="560" y="430" as="sourcePoint" />
            <mxPoint x="620" y="430" as="targetPoint" />
          </mxGeometry>
        </mxCell>
        <mxCell id="tsfyDtX6I3HXYq4GZ-qm-1" value="" style="swimlane;startSize=0;" vertex="1" parent="1">
          <mxGeometry x="350" y="50" width="207" height="200" as="geometry" />
        </mxCell>
        <mxCell id="tsfyDtX6I3HXYq4GZ-qm-3" value="" style="endArrow=none;html=1;rounded=0;exitX=0;exitY=1;exitDx=0;exitDy=0;" edge="1" parent="tsfyDtX6I3HXYq4GZ-qm-1" source="tsfyDtX6I3HXYq4GZ-qm-4">
          <mxGeometry width="50" height="50" relative="1" as="geometry">
            <mxPoint x="10" y="30" as="sourcePoint" />
            <mxPoint x="200" y="31" as="targetPoint" />
            <Array as="points">
              <mxPoint x="130" y="31" />
            </Array>
          </mxGeometry>
        </mxCell>
        <mxCell id="tsfyDtX6I3HXYq4GZ-qm-4" value="&lt;b&gt;CRS&lt;/b&gt;" style="text;strokeColor=none;align=center;fillColor=none;html=1;verticalAlign=middle;whiteSpace=wrap;rounded=0;" vertex="1" parent="tsfyDtX6I3HXYq4GZ-qm-1">
          <mxGeometry x="70" y="3" width="60" height="30" as="geometry" />
        </mxCell>
        <mxCell id="tsfyDtX6I3HXYq4GZ-qm-6" value="" style="endArrow=none;html=1;rounded=0;exitX=-0.017;exitY=0.156;exitDx=0;exitDy=0;exitPerimeter=0;entryX=0.25;entryY=1;entryDx=0;entryDy=0;" edge="1" parent="tsfyDtX6I3HXYq4GZ-qm-1" source="tsfyDtX6I3HXYq4GZ-qm-1" target="tsfyDtX6I3HXYq4GZ-qm-4">
          <mxGeometry width="50" height="50" relative="1" as="geometry">
            <mxPoint x="347" y="81" as="sourcePoint" />
            <mxPoint x="550" y="81" as="targetPoint" />
          </mxGeometry>
        </mxCell>
        <mxCell id="tsfyDtX6I3HXYq4GZ-qm-39" value="" style="endArrow=none;html=1;rounded=0;entryX=-0.207;entryY=-0.307;entryDx=0;entryDy=0;entryPerimeter=0;" edge="1" parent="tsfyDtX6I3HXYq4GZ-qm-1">
          <mxGeometry width="50" height="50" relative="1" as="geometry">
            <mxPoint x="99.75" y="209.61" as="sourcePoint" />
            <mxPoint x="99.32999999999993" y="30.399999999999963" as="targetPoint" />
          </mxGeometry>
        </mxCell>
        <mxCell id="tsfyDtX6I3HXYq4GZ-qm-41" value="" style="endArrow=none;html=1;rounded=0;exitX=-0.018;exitY=0.354;exitDx=0;exitDy=0;exitPerimeter=0;entryX=1;entryY=0.32;entryDx=0;entryDy=0;entryPerimeter=0;" edge="1" parent="tsfyDtX6I3HXYq4GZ-qm-1">
          <mxGeometry width="50" height="50" relative="1" as="geometry">
            <mxPoint x="-4" y="84" as="sourcePoint" />
            <mxPoint x="200" y="84.32999999999993" as="targetPoint" />
            <Array as="points">
              <mxPoint x="100" y="84" />
            </Array>
          </mxGeometry>
        </mxCell>
        <mxCell id="tsfyDtX6I3HXYq4GZ-qm-43" value="" style="endArrow=none;html=1;rounded=0;exitX=-0.018;exitY=0.354;exitDx=0;exitDy=0;exitPerimeter=0;entryX=1;entryY=0.32;entryDx=0;entryDy=0;entryPerimeter=0;" edge="1" parent="tsfyDtX6I3HXYq4GZ-qm-1">
          <mxGeometry width="50" height="50" relative="1" as="geometry">
            <mxPoint y="142" as="sourcePoint" />
            <mxPoint x="204" y="142.32999999999993" as="targetPoint" />
            <Array as="points">
              <mxPoint x="104" y="142" />
            </Array>
          </mxGeometry>
        </mxCell>
        <mxCell id="tsfyDtX6I3HXYq4GZ-qm-44" value="Cours ID" style="text;strokeColor=none;align=center;fillColor=none;html=1;verticalAlign=middle;whiteSpace=wrap;rounded=0;" vertex="1" parent="tsfyDtX6I3HXYq4GZ-qm-1">
          <mxGeometry x="18" y="42" width="60" height="30" as="geometry" />
        </mxCell>
        <mxCell id="tsfyDtX6I3HXYq4GZ-qm-49" value="209" style="text;strokeColor=none;align=center;fillColor=none;html=1;verticalAlign=middle;whiteSpace=wrap;rounded=0;" vertex="1" parent="tsfyDtX6I3HXYq4GZ-qm-1">
          <mxGeometry x="117" y="42" width="60" height="30" as="geometry" />
        </mxCell>
        <mxCell id="tsfyDtX6I3HXYq4GZ-qm-48" value="CCNA" style="text;strokeColor=none;align=center;fillColor=none;html=1;verticalAlign=middle;whiteSpace=wrap;rounded=0;" vertex="1" parent="tsfyDtX6I3HXYq4GZ-qm-1">
          <mxGeometry x="118" y="99" width="60" height="30" as="geometry" />
        </mxCell>
        <mxCell id="tsfyDtX6I3HXYq4GZ-qm-47" value="Course Name" style="text;strokeColor=none;align=center;fillColor=none;html=1;verticalAlign=middle;whiteSpace=wrap;rounded=0;" vertex="1" parent="tsfyDtX6I3HXYq4GZ-qm-1">
          <mxGeometry x="9" y="100" width="81" height="30" as="geometry" />
        </mxCell>
        <mxCell id="tsfyDtX6I3HXYq4GZ-qm-46" value="4" style="text;strokeColor=none;align=center;fillColor=none;html=1;verticalAlign=middle;whiteSpace=wrap;rounded=0;" vertex="1" parent="tsfyDtX6I3HXYq4GZ-qm-1">
          <mxGeometry x="119" y="155" width="60" height="30" as="geometry" />
        </mxCell>
        <mxCell id="tsfyDtX6I3HXYq4GZ-qm-45" value="Credits" style="text;strokeColor=none;align=center;fillColor=none;html=1;verticalAlign=middle;whiteSpace=wrap;rounded=0;" vertex="1" parent="tsfyDtX6I3HXYq4GZ-qm-1">
          <mxGeometry x="19" y="155" width="60" height="30" as="geometry" />
        </mxCell>
        <mxCell id="tsfyDtX6I3HXYq4GZ-qm-7" value="" style="endArrow=none;html=1;rounded=0;entryX=-0.207;entryY=-0.307;entryDx=0;entryDy=0;entryPerimeter=0;" edge="1" parent="1">
          <mxGeometry width="50" height="50" relative="1" as="geometry">
            <mxPoint x="174" y="300" as="sourcePoint" />
            <mxPoint x="173.57999999999993" y="120.78999999999996" as="targetPoint" />
          </mxGeometry>
        </mxCell>
        <mxCell id="tsfyDtX6I3HXYq4GZ-qm-8" value="" style="endArrow=none;html=1;rounded=0;exitX=-0.018;exitY=0.354;exitDx=0;exitDy=0;exitPerimeter=0;entryX=1;entryY=0.32;entryDx=0;entryDy=0;entryPerimeter=0;" edge="1" parent="1" source="3ggdFOlAp6wFt-ibNZRG-4">
          <mxGeometry width="50" height="50" relative="1" as="geometry">
            <mxPoint x="121.75999999999999" y="165.16999999999996" as="sourcePoint" />
            <mxPoint x="280" y="164.32999999999993" as="targetPoint" />
            <Array as="points">
              <mxPoint x="180" y="164" />
            </Array>
          </mxGeometry>
        </mxCell>
        <mxCell id="tsfyDtX6I3HXYq4GZ-qm-9" value="" style="endArrow=none;html=1;rounded=0;entryX=1;entryY=0.32;entryDx=0;entryDy=0;entryPerimeter=0;" edge="1" parent="1">
          <mxGeometry width="50" height="50" relative="1" as="geometry">
            <mxPoint x="80" y="250" as="sourcePoint" />
            <mxPoint x="280" y="250" as="targetPoint" />
          </mxGeometry>
        </mxCell>
        <mxCell id="tsfyDtX6I3HXYq4GZ-qm-10" value="" style="endArrow=none;html=1;rounded=0;exitX=-0.004;exitY=0.57;exitDx=0;exitDy=0;exitPerimeter=0;entryX=1;entryY=0.32;entryDx=0;entryDy=0;entryPerimeter=0;" edge="1" parent="1" source="3ggdFOlAp6wFt-ibNZRG-4">
          <mxGeometry width="50" height="50" relative="1" as="geometry">
            <mxPoint x="120" y="210.99999999999997" as="sourcePoint" />
            <mxPoint x="278" y="209.99999999999997" as="targetPoint" />
          </mxGeometry>
        </mxCell>
        <mxCell id="tsfyDtX6I3HXYq4GZ-qm-12" value="Name" style="text;strokeColor=none;align=center;fillColor=none;html=1;verticalAlign=middle;whiteSpace=wrap;rounded=0;" vertex="1" parent="1">
          <mxGeometry x="95" y="174" width="60" height="30" as="geometry" />
        </mxCell>
        <mxCell id="tsfyDtX6I3HXYq4GZ-qm-13" value="Major" style="text;strokeColor=none;align=center;fillColor=none;html=1;verticalAlign=middle;whiteSpace=wrap;rounded=0;" vertex="1" parent="1">
          <mxGeometry x="100" y="260" width="60" height="30" as="geometry" />
        </mxCell>
        <mxCell id="tsfyDtX6I3HXYq4GZ-qm-18" value="Ahmad" style="text;strokeColor=none;align=center;fillColor=none;html=1;verticalAlign=middle;whiteSpace=wrap;rounded=0;" vertex="1" parent="1">
          <mxGeometry x="196" y="172" width="60" height="30" as="geometry" />
        </mxCell>
        <mxCell id="tsfyDtX6I3HXYq4GZ-qm-19" value="2002-2-15" style="text;strokeColor=none;align=center;fillColor=none;html=1;verticalAlign=middle;whiteSpace=wrap;rounded=0;" vertex="1" parent="1">
          <mxGeometry x="195" y="218" width="60" height="30" as="geometry" />
        </mxCell>
        <mxCell id="tsfyDtX6I3HXYq4GZ-qm-20" value="IT" style="text;strokeColor=none;align=center;fillColor=none;html=1;verticalAlign=middle;whiteSpace=wrap;rounded=0;" vertex="1" parent="1">
          <mxGeometry x="197" y="260" width="60" height="30" as="geometry" />
        </mxCell>
        <mxCell id="tsfyDtX6I3HXYq4GZ-qm-33" value="190" style="text;strokeColor=none;align=center;fillColor=none;html=1;verticalAlign=middle;whiteSpace=wrap;rounded=0;" vertex="1" parent="1">
          <mxGeometry x="197" y="130" width="60" height="30" as="geometry" />
        </mxCell>
        <mxCell id="tsfyDtX6I3HXYq4GZ-qm-34" value="Student ID" style="text;strokeColor=none;align=center;fillColor=none;html=1;verticalAlign=middle;whiteSpace=wrap;rounded=0;" vertex="1" parent="1">
          <mxGeometry x="100" y="130" width="60" height="30" as="geometry" />
        </mxCell>
        <mxCell id="tsfyDtX6I3HXYq4GZ-qm-36" value="Dat Of Birth" style="text;strokeColor=none;align=center;fillColor=none;html=1;verticalAlign=middle;whiteSpace=wrap;rounded=0;" vertex="1" parent="1">
          <mxGeometry x="91" y="215" width="72" height="30" as="geometry" />
        </mxCell>
        <mxCell id="tsfyDtX6I3HXYq4GZ-qm-52" value="" style="endArrow=none;html=1;rounded=0;exitX=-0.018;exitY=0.354;exitDx=0;exitDy=0;exitPerimeter=0;entryX=1;entryY=0.32;entryDx=0;entryDy=0;entryPerimeter=0;" edge="1" parent="1">
          <mxGeometry width="50" height="50" relative="1" as="geometry">
            <mxPoint x="626" y="159.99999999999997" as="sourcePoint" />
            <mxPoint x="830" y="160.3299999999999" as="targetPoint" />
            <Array as="points">
              <mxPoint x="730" y="159.99999999999997" />
            </Array>
          </mxGeometry>
        </mxCell>
        <mxCell id="tsfyDtX6I3HXYq4GZ-qm-56" value="" style="endArrow=none;html=1;rounded=0;exitX=-0.018;exitY=0.354;exitDx=0;exitDy=0;exitPerimeter=0;" edge="1" parent="1">
          <mxGeometry width="50" height="50" relative="1" as="geometry">
            <mxPoint x="640" y="210.99999999999997" as="sourcePoint" />
            <mxPoint x="830" y="211" as="targetPoint" />
            <Array as="points">
              <mxPoint x="744" y="210.99999999999997" />
            </Array>
          </mxGeometry>
        </mxCell>
        <mxCell id="tsfyDtX6I3HXYq4GZ-qm-58" value="Name" style="text;strokeColor=none;align=center;fillColor=none;html=1;verticalAlign=middle;whiteSpace=wrap;rounded=0;" vertex="1" parent="1">
          <mxGeometry x="700" y="172" width="60" height="30" as="geometry" />
        </mxCell>
        <mxCell id="tsfyDtX6I3HXYq4GZ-qm-59" value="Instractor" style="text;strokeColor=none;align=center;fillColor=none;html=1;verticalAlign=middle;whiteSpace=wrap;rounded=0;" vertex="1" parent="1">
          <mxGeometry x="700" y="120" width="60" height="30" as="geometry" />
        </mxCell>
        <mxCell id="tsfyDtX6I3HXYq4GZ-qm-60" value="Departement" style="text;strokeColor=none;align=center;fillColor=none;html=1;verticalAlign=middle;whiteSpace=wrap;rounded=0;" vertex="1" parent="1">
          <mxGeometry x="700" y="222" width="60" height="30" as="geometry" />
        </mxCell>
        <mxCell id="tsfyDtX6I3HXYq4GZ-qm-61" value="" style="endArrow=none;html=1;rounded=0;" edge="1" parent="1">
          <mxGeometry width="50" height="50" relative="1" as="geometry">
            <mxPoint x="379" y="370" as="sourcePoint" />
            <mxPoint x="540" y="371" as="targetPoint" />
          </mxGeometry>
        </mxCell>
        <mxCell id="tsfyDtX6I3HXYq4GZ-qm-62" value="" style="endArrow=none;html=1;rounded=0;" edge="1" parent="1">
          <mxGeometry width="50" height="50" relative="1" as="geometry">
            <mxPoint x="347" y="446.33" as="sourcePoint" />
            <mxPoint x="557" y="448" as="targetPoint" />
          </mxGeometry>
        </mxCell>
        <mxCell id="tsfyDtX6I3HXYq4GZ-qm-63" value="" style="endArrow=none;html=1;rounded=0;entryX=1.003;entryY=0.63;entryDx=0;entryDy=0;entryPerimeter=0;" edge="1" parent="1">
          <mxGeometry width="50" height="50" relative="1" as="geometry">
            <mxPoint x="345" y="486" as="sourcePoint" />
            <mxPoint x="555.6300000000001" y="487.79999999999995" as="targetPoint" />
          </mxGeometry>
        </mxCell>
        <mxCell id="tsfyDtX6I3HXYq4GZ-qm-65" value="" style="endArrow=none;html=1;rounded=0;" edge="1" parent="1">
          <mxGeometry width="50" height="50" relative="1" as="geometry">
            <mxPoint x="346" y="525" as="sourcePoint" />
            <mxPoint x="556" y="525" as="targetPoint" />
          </mxGeometry>
        </mxCell>
        <mxCell id="tsfyDtX6I3HXYq4GZ-qm-66" value="" style="endArrow=none;html=1;rounded=0;" edge="1" parent="1">
          <mxGeometry width="50" height="50" relative="1" as="geometry">
            <mxPoint x="347" y="408.67" as="sourcePoint" />
            <mxPoint x="556" y="410" as="targetPoint" />
          </mxGeometry>
        </mxCell>
        <mxCell id="tsfyDtX6I3HXYq4GZ-qm-67" value="Enrollment ID" style="text;strokeColor=none;align=center;fillColor=none;html=1;verticalAlign=middle;whiteSpace=wrap;rounded=0;" vertex="1" parent="1">
          <mxGeometry x="403" y="338" width="95" height="30" as="geometry" />
        </mxCell>
        <mxCell id="tsfyDtX6I3HXYq4GZ-qm-68" value="Student ID" style="text;strokeColor=none;align=center;fillColor=none;html=1;verticalAlign=middle;whiteSpace=wrap;rounded=0;" vertex="1" parent="1">
          <mxGeometry x="420" y="378" width="60" height="30" as="geometry" />
        </mxCell>
        <mxCell id="tsfyDtX6I3HXYq4GZ-qm-69" value="Course ID" style="text;strokeColor=none;align=center;fillColor=none;html=1;verticalAlign=middle;whiteSpace=wrap;rounded=0;" vertex="1" parent="1">
          <mxGeometry x="420" y="418" width="60" height="30" as="geometry" />
        </mxCell>
        <mxCell id="tsfyDtX6I3HXYq4GZ-qm-70" value="Instractor&lt;span style=&quot;white-space: pre;&quot;&gt;&#x9;&lt;/span&gt;ID" style="text;strokeColor=none;align=center;fillColor=none;html=1;verticalAlign=middle;whiteSpace=wrap;rounded=0;" vertex="1" parent="1">
          <mxGeometry x="420" y="455" width="60" height="30" as="geometry" />
        </mxCell>
        <mxCell id="tsfyDtX6I3HXYq4GZ-qm-71" value="Semester" style="text;strokeColor=none;align=center;fillColor=none;html=1;verticalAlign=middle;whiteSpace=wrap;rounded=0;" vertex="1" parent="1">
          <mxGeometry x="418" y="495" width="60" height="30" as="geometry" />
        </mxCell>
        <mxCell id="tsfyDtX6I3HXYq4GZ-qm-72" value="Year" style="text;strokeColor=none;align=center;fillColor=none;html=1;verticalAlign=middle;whiteSpace=wrap;rounded=0;" vertex="1" parent="1">
          <mxGeometry x="420" y="530" width="60" height="30" as="geometry" />
        </mxCell>
        <mxCell id="tsfyDtX6I3HXYq4GZ-qm-78" value="" style="endArrow=none;html=1;rounded=0;" edge="1" parent="1">
          <mxGeometry width="50" height="50" relative="1" as="geometry">
            <mxPoint x="343.5" y="370" as="sourcePoint" />
            <mxPoint x="552.5" y="371.33" as="targetPoint" />
          </mxGeometry>
        </mxCell>
        <mxCell id="tsfyDtX6I3HXYq4GZ-qm-80" value="" style="endArrow=none;html=1;rounded=0;" edge="1" parent="1">
          <mxGeometry width="50" height="50" relative="1" as="geometry">
            <mxPoint x="618" y="446" as="sourcePoint" />
            <mxPoint x="820" y="447" as="targetPoint" />
          </mxGeometry>
        </mxCell>
        <mxCell id="tsfyDtX6I3HXYq4GZ-qm-81" value="" style="endArrow=none;html=1;rounded=0;" edge="1" parent="1">
          <mxGeometry width="50" height="50" relative="1" as="geometry">
            <mxPoint x="620" y="402" as="sourcePoint" />
            <mxPoint x="822" y="403" as="targetPoint" />
          </mxGeometry>
        </mxCell>
        <mxCell id="tsfyDtX6I3HXYq4GZ-qm-83" value="" style="endArrow=none;html=1;rounded=0;" edge="1" parent="1">
          <mxGeometry width="50" height="50" relative="1" as="geometry">
            <mxPoint x="618" y="489" as="sourcePoint" />
            <mxPoint x="820" y="490" as="targetPoint" />
          </mxGeometry>
        </mxCell>
        <mxCell id="tsfyDtX6I3HXYq4GZ-qm-84" value="Grade ID" style="text;strokeColor=none;align=center;fillColor=none;html=1;verticalAlign=middle;whiteSpace=wrap;rounded=0;" vertex="1" parent="1">
          <mxGeometry x="690" y="410" width="60" height="30" as="geometry" />
        </mxCell>
        <mxCell id="tsfyDtX6I3HXYq4GZ-qm-86" value="Grade&amp;nbsp;" style="text;strokeColor=none;align=center;fillColor=none;html=1;verticalAlign=middle;whiteSpace=wrap;rounded=0;" vertex="1" parent="1">
          <mxGeometry x="689" y="495" width="60" height="30" as="geometry" />
        </mxCell>
        <mxCell id="tsfyDtX6I3HXYq4GZ-qm-87" value="Enrollment ID" style="text;strokeColor=none;align=center;fillColor=none;html=1;verticalAlign=middle;whiteSpace=wrap;rounded=0;" vertex="1" parent="1">
          <mxGeometry x="671.5" y="455" width="95" height="30" as="geometry" />
        </mxCell>
        <mxCell id="tsfyDtX6I3HXYq4GZ-qm-90" value="" style="endArrow=none;html=1;rounded=0;entryX=0.988;entryY=0.095;entryDx=0;entryDy=0;entryPerimeter=0;exitX=0.017;exitY=0.134;exitDx=0;exitDy=0;exitPerimeter=0;" edge="1" parent="1">
          <mxGeometry width="50" height="50" relative="1" as="geometry">
            <mxPoint x="103" y="490" as="sourcePoint" />
            <mxPoint x="279.99999999999994" y="489.00000000000006" as="targetPoint" />
          </mxGeometry>
        </mxCell>
        <mxCell id="tsfyDtX6I3HXYq4GZ-qm-91" value="" style="endArrow=none;html=1;rounded=0;entryX=0.988;entryY=0.095;entryDx=0;entryDy=0;entryPerimeter=0;exitX=0.017;exitY=0.134;exitDx=0;exitDy=0;exitPerimeter=0;" edge="1" parent="1">
          <mxGeometry width="50" height="50" relative="1" as="geometry">
            <mxPoint x="103" y="539" as="sourcePoint" />
            <mxPoint x="279.99999999999994" y="538" as="targetPoint" />
          </mxGeometry>
        </mxCell>
        <mxCell id="tsfyDtX6I3HXYq4GZ-qm-92" value="" style="endArrow=none;html=1;rounded=0;entryX=0.988;entryY=0.095;entryDx=0;entryDy=0;entryPerimeter=0;exitX=0.017;exitY=0.134;exitDx=0;exitDy=0;exitPerimeter=0;" edge="1" parent="1">
          <mxGeometry width="50" height="50" relative="1" as="geometry">
            <mxPoint x="103" y="590" as="sourcePoint" />
            <mxPoint x="279.99999999999994" y="589" as="targetPoint" />
          </mxGeometry>
        </mxCell>
        <mxCell id="tsfyDtX6I3HXYq4GZ-qm-94" value="Transcript" style="text;strokeColor=none;align=center;fillColor=none;html=1;verticalAlign=middle;whiteSpace=wrap;rounded=0;" vertex="1" parent="1">
          <mxGeometry x="159" y="451" width="60" height="30" as="geometry" />
        </mxCell>
        <mxCell id="tsfyDtX6I3HXYq4GZ-qm-95" value="Student" style="text;strokeColor=none;align=center;fillColor=none;html=1;verticalAlign=middle;whiteSpace=wrap;rounded=0;" vertex="1" parent="1">
          <mxGeometry x="157" y="500" width="60" height="30" as="geometry" />
        </mxCell>
        <mxCell id="tsfyDtX6I3HXYq4GZ-qm-96" value="GPA" style="text;strokeColor=none;align=center;fillColor=none;html=1;verticalAlign=middle;whiteSpace=wrap;rounded=0;" vertex="1" parent="1">
          <mxGeometry x="157" y="550" width="60" height="30" as="geometry" />
        </mxCell>
        <mxCell id="tsfyDtX6I3HXYq4GZ-qm-97" value="IssueDate" style="text;strokeColor=none;align=center;fillColor=none;html=1;verticalAlign=middle;whiteSpace=wrap;rounded=0;" vertex="1" parent="1">
          <mxGeometry x="159" y="600" width="60" height="30" as="geometry" />
        </mxCell>
      </root>
    </mxGraphModel>
  </diagram>
</mxfile>
